HIERARCHY
ROOT Hips
{
	OFFSET 0.000000 0.000000 0.000000
	CHANNELS 6 Xposition Yposition Zposition Xrotation Yrotation Zrotation
	JOINT LeftUpLeg_virtual
	{
		OFFSET 0.000000 0.000000 0.000000
		CHANNELS 3 Xrotation Yrotation Zrotation
		JOINT LeftUpLeg
		{
			OFFSET 15.427100 -6.655098 0.678600
			CHANNELS 3 Xrotation Yrotation Zrotation
			JOINT LeftLeg
			{
				OFFSET 4.081073 -39.591068 13.024000
				CHANNELS 3 Xrotation Yrotation Zrotation
				JOINT LeftFoot
				{
					OFFSET -4.081074 -37.707932 -15.979700
					CHANNELS 3 Xrotation Yrotation Zrotation
					JOINT LeftToeBase
					{
						OFFSET 5.346399 -15.068900 20.645000
						CHANNELS 3 Xrotation Yrotation Zrotation
						JOINT LeftToe_End
						{
							OFFSET 2.754700 0.931300 11.300900
							CHANNELS 3 Xrotation Yrotation Zrotation
							End Site
							{
								OFFSET 0 0 0
							}
						}
					}
				}
			}
		}
	}
	JOINT RightUpLeg_virtual
	{
		OFFSET 0.000000 0.000000 0.000000
		CHANNELS 3 Xrotation Yrotation Zrotation
		JOINT RightUpLeg
		{
			OFFSET -15.569500 -6.655098 0.678600
			CHANNELS 3 Xrotation Yrotation Zrotation
			JOINT RightLeg
			{
				OFFSET -4.081825 -39.591045 13.023800
				CHANNELS 3 Xrotation Yrotation Zrotation
				JOINT RightFoot
				{
					OFFSET 4.081824 -37.707954 -15.979600
					CHANNELS 3 Xrotation Yrotation Zrotation
					JOINT RightToeBase
					{
						OFFSET -5.346400 -15.068900 20.645000
						CHANNELS 3 Xrotation Yrotation Zrotation
						JOINT RightToe_End
						{
							OFFSET -2.754700 0.931300 11.300900
							CHANNELS 3 Xrotation Yrotation Zrotation
							End Site
							{
								OFFSET 0 0 0
							}
						}
					}
				}
			}
		}
	}
	JOINT Spine_virtual
	{
		OFFSET 0.000000 0.000000 0.000000
		CHANNELS 3 Xrotation Yrotation Zrotation
		JOINT Spine
		{
			OFFSET -0.279200 12.230698 -2.892100
			CHANNELS 3 Xrotation Yrotation Zrotation
			JOINT Spine1
			{
				OFFSET -0.232667 10.192268 -1.242267
				CHANNELS 3 Xrotation Yrotation Zrotation
				JOINT Spine1_split
				{
					OFFSET -0.232667 10.192268 -1.242267
					CHANNELS 3 Xrotation Yrotation Zrotation
					JOINT Spine2
					{
						OFFSET -0.232667 10.192268 -1.242267
						CHANNELS 3 Xrotation Yrotation Zrotation
						JOINT Neck_virtual
						{
							OFFSET 0.000000 0.000000 0.000000
							CHANNELS 3 Xrotation Yrotation Zrotation
							JOINT Neck
							{
								OFFSET -0.418800 17.814194 8.416900
								CHANNELS 3 Xrotation Yrotation Zrotation
								JOINT Head
								{
									OFFSET 0.000000 7.031097 3.806800
									CHANNELS 3 Xrotation Yrotation Zrotation
									JOINT HeadTop_End
									{
										OFFSET 0.000000 24.646606 12.978600
										CHANNELS 3 Xrotation Yrotation Zrotation
										End Site
										{
											OFFSET 0 0 0
										}
									}
								}
							}
						}
						JOINT LeftShoulder_virtual
						{
							OFFSET 0.000000 0.000000 0.000000
							CHANNELS 3 Xrotation Yrotation Zrotation
							JOINT LeftShoulder
							{
								OFFSET 8.476499 7.247704 -3.868750
								CHANNELS 3 Xrotation Yrotation Zrotation
								JOINT LeftShoulder_split
								{
									OFFSET 8.476499 7.247704 -3.868750
									CHANNELS 3 Xrotation Yrotation Zrotation
									JOINT LeftArm
									{
										OFFSET 9.308998 -2.777710 0.208600
										CHANNELS 3 Xrotation Yrotation Zrotation
										JOINT LeftForeArm
										{
											OFFSET 29.972298 0.000000 0.000000
											CHANNELS 3 Xrotation Yrotation Zrotation
											JOINT LeftHand
											{
												OFFSET 26.026505 0.000000 0.000000
												CHANNELS 3 Xrotation Yrotation Zrotation
												End Site
												{
													OFFSET 0 0 0
												}
											}
										}
									}
								}
							}
						}
						JOINT RightShoulder_virtual
						{
							OFFSET 0.000000 0.000000 0.000000
							CHANNELS 3 Xrotation Yrotation Zrotation
							JOINT RightShoulder
							{
								OFFSET -7.570500 7.247704 -3.868750
								CHANNELS 3 Xrotation Yrotation Zrotation
								JOINT RightShoulder_split
								{
									OFFSET -7.570500 7.247704 -3.868750
									CHANNELS 3 Xrotation Yrotation Zrotation
									JOINT RightArm
									{
										OFFSET -9.308998 -2.777710 0.208500
										CHANNELS 3 Xrotation Yrotation Zrotation
										JOINT RightForeArm
										{
											OFFSET -29.972300 0.000000 0.000000
											CHANNELS 3 Xrotation Yrotation Zrotation
											JOINT RightHand
											{
												OFFSET -26.026505 0.000000 0.000000
												CHANNELS 3 Xrotation Yrotation Zrotation
												End Site
												{
													OFFSET 0 0 0
												}
											}
										}
									}
								}
							}
						}
					}
				}
			}
		}
	}
}
MOTION
Frames: 4
Frame Time: 0.03333333
0.702078 99.914673 -5.644638 0.000000 0.000000 0.000000 -86.387857 -4.357722 -0.781636 6.266258 18.753502 19.443616 -0.724585 3.522386 3.259966 14.973337 29.505874 -27.369640 -3.959521 -0.505592 0.234356 0.000000 0.000000 0.000000 -88.010853 -0.215198 1.850968 11.524001 -20.730650 -13.415093 0.815346 -2.401168 -8.500845 19.736603 -34.639451 26.907817 -10.080658 1.336723 -0.732224 0.000000 0.000000 0.000000 -86.898400 -6.076156 -3.288112 4.530435 1.841600 0.150174 16.565859 4.076333 -1.793018 0.502467 -0.283705 -0.084866 0.000000 0.000000 0.000000 14.921212 3.782746 -2.304167 -2.360080 1.404371 -4.227475 21.238033 4.872292 -8.842526 0.000000 0.000000 0.000000 16.814481 3.366550 -1.659516 -0.426636 7.071146 1.856943 -0.320767 -0.985199 -3.084788 16.010199 -51.446788 -39.395377 -0.499497 -80.945788 -0.163705 0.000000 0.000000 0.000000 15.063941 3.573662 -2.039277 0.845978 2.135092 14.676716 1.216056 2.177126 1.815469 -34.225026 34.790385 62.320442 178.548371 53.677688 -179.937277 0.000000 0.000000 0.000000 
0.678400 99.739449 -5.768192 0.000000 0.000000 0.000000 -86.302247 -4.759947 -1.116502 6.318041 18.407394 19.637651 -0.852804 3.829573 3.352049 15.083937 29.729802 -27.518368 -4.003447 -0.518804 -0.025401 0.000000 0.000000 0.000000 -87.992706 -0.849309 1.290007 11.046271 -20.899301 -13.163880 0.595918 -2.266149 -8.263568 20.368987 -34.159074 27.115885 -10.511183 1.319551 -0.621767 0.000000 0.000000 0.000000 -86.921705 -6.493279 -3.441518 3.902438 1.675935 0.147443 16.280844 3.865147 -1.677935 0.621496 -0.104997 -0.140836 0.000000 0.000000 0.000000 14.712815 3.626863 -2.212375 -1.552550 1.233789 -4.082753 21.796324 5.022240 -9.067955 0.000000 0.000000 0.000000 16.620869 3.155218 -1.565593 -0.345404 6.453340 1.570908 -0.426281 -1.113790 -2.891931 17.102493 -50.438816 -39.641281 -0.565291 -81.173185 -0.359733 0.000000 0.000000 0.000000 14.953393 3.414954 -1.889031 0.895014 1.546882 14.884678 0.812789 2.328760 1.940980 -34.565426 35.859292 62.173443 178.455727 54.862163 -179.851722 0.000000 0.000000 0.000000 
0.679961 99.567123 -5.747131 0.000000 0.000000 0.000000 -86.018788 -5.146513 -1.589572 6.242685 18.046704 19.791909 -1.087720 4.160079 3.249452 15.746076 29.911867 -27.482373 -4.189571 -0.565052 -0.195442 0.000000 0.000000 0.000000 -87.657876 -1.370524 0.650591 10.514392 -20.990816 -13.028150 0.260875 -2.108709 -7.932461 21.656845 -33.522596 27.748055 -11.193182 1.287058 -0.489580 0.000000 0.000000 0.000000 -86.645034 -6.781482 -3.647610 3.199461 1.468033 0.215203 15.829773 3.509163 -1.507186 0.733751 0.130146 -0.150092 0.000000 0.000000 0.000000 14.269455 3.324787 -2.038505 -0.721060 1.045351 -3.831722 22.340914 4.889406 -9.171782 0.000000 0.000000 0.000000 16.231519 2.795021 -1.394939 -0.242809 5.791809 1.416883 -0.542419 -1.071565 -2.731280 18.179593 -49.340522 -40.461341 -0.708254 -81.561174 -0.685591 0.000000 0.000000 0.000000 14.677035 3.112305 -1.690396 0.917155 1.023601 14.961637 0.444464 2.607157 2.133355 -33.850267 37.091158 61.329751 178.354708 55.468390 -179.699777 0.000000 0.000000 0.000000 
0.706483 99.394371 -5.662125 0.000000 0.000000 0.000000 -85.548160 -5.509239 -2.179730 6.061445 17.756919 19.873156 -1.423777 4.489359 2.969892 16.819302 30.035327 -27.257477 -4.324916 -0.632106 -0.269663 0.000000 0.000000 0.000000 -87.118455 -1.778823 -0.030396 10.060026 -21.014771 -12.913040 -0.229871 -2.019395 -7.587359 23.038833 -33.019853 28.417229 -11.814776 1.247456 -0.345646 0.000000 0.000000 0.000000 -86.150563 -6.951938 -3.948496 2.520029 1.231848 0.361270 15.199128 3.032598 -1.280539 0.825765 0.355812 -0.207532 0.000000 0.000000 0.000000 13.593618 2.900080 -1.792416 -0.023909 0.853725 -3.500908 22.725255 4.605751 -9.234532 0.000000 0.000000 0.000000 15.618220 2.321732 -1.162598 -0.127115 5.160405 1.348291 -0.645435 -1.012152 -2.640863 19.349402 -48.060561 -41.696410 -1.174354 -81.955406 -1.358236 0.000000 0.000000 0.000000 14.208989 2.692717 -1.451591 0.891809 0.573545 14.879415 0.165175 2.743082 2.344574 -32.131604 38.257580 59.692780 178.296638 55.351204 -179.525935 0.000000 0.000000 0.000000 
